<?xml version="1.0" encoding="UTF-8" standalone="no"?><!DOCTYPE svg PUBLIC "-//W3C//DTD SVG 1.1//EN" "http://www.w3.org/Graphics/SVG/1.1/DTD/svg11.dtd"><svg width="100%" height="100%" viewBox="0 0 8 8" version="1.1" xmlns="http://www.w3.org/2000/svg" xmlns:xlink="http://www.w3.org/1999/xlink" xml:space="preserve" xmlns:serif="http://www.serif.com/" style="fill-rule:evenodd;clip-rule:evenodd;stroke-linejoin:round;stroke-miterlimit:2;"><path d="M5.929,4.562c-0.035,0.014 -0.061,0.045 -0.068,0.083c-0.021,0.107 -0.046,0.216 -0.075,0.325c-0.428,1.596 -1.607,2.701 -2.755,2.664c-0.13,-0.004 -0.284,0.071 -0.412,0.037c-0.128,-0.034 -0.224,-0.177 -0.339,-0.238c-1.012,-0.542 -1.481,-2.089 -1.053,-3.685c0.029,-0.109 0.062,-0.216 0.098,-0.319c0.013,-0.036 0.006,-0.076 -0.018,-0.106c-0.244,-0.305 -0.35,-0.623 -0.272,-0.913c0.192,-0.718 0.906,-1.351 2.785,-0.956c0.014,0.003 0.028,-0.001 0.039,-0.009c0.011,-0.009 0.017,-0.022 0.017,-0.036c-0,-0.129 -0.002,-0.388 0,-0.455c0.007,-0.228 0.024,-0.455 0.136,-0.661c0.098,-0.18 0.319,-0.3 0.523,-0.291c0.234,0.01 0.38,0.157 0.612,0.189c0.409,0.056 0.452,-0.076 0.672,-0.071c0.224,0.006 0.409,0.073 0.638,0.224c0.016,0.011 0.026,0.029 0.025,0.049c-0.001,0.02 -0.012,0.037 -0.029,0.046c-0.222,0.112 -0.596,0.19 -0.968,0.091c-0.481,-0.129 -0.518,-0.198 -0.814,-0.278c-0.218,-0.058 -0.37,0.097 -0.415,0.339c-0.044,0.237 -0.055,0.544 0,0.97c0.29,2.239 0.667,3.923 -0.145,4.199c-0.288,0.098 -0.522,-0.159 -0.76,-0.527c-0.046,-0.071 0.206,-0.34 0.159,-0.418c-0.049,-0.082 -0.397,0.026 -0.448,-0.06c-0.057,-0.095 0.237,-0.411 0.177,-0.505c-0.06,-0.093 -0.474,0.035 -0.538,-0.051c-0.217,-0.292 -0.464,-0.532 -0.767,-0.613c-0.083,-0.022 -0.088,-0.041 0.012,-0.066c0.117,-0.03 0.278,-0.08 0.456,-0.163c0.396,-0.184 0.695,-0.438 0.616,-0.59c-0.152,-0.291 -1.364,0.108 -1.556,0.639c-0.044,0.122 -0.013,0.241 0.256,0.313c0.414,0.111 0.685,0.719 0.796,1.234c0.217,1.006 0.859,2.124 1.862,1.824c0.855,-0.256 0.964,-1.115 0.802,-2.007c-0.315,-1.729 -0.487,-2.746 -0.533,-3.021c-0.003,-0.016 0.003,-0.033 0.016,-0.043c0.012,-0.011 0.03,-0.014 0.045,-0.009c1.803,0.601 2.107,1.498 1.916,2.213c-0.078,0.291 -0.328,0.513 -0.692,0.655l-0.001,0Z" style="fill:#34a19c;"/></svg>